<mxfile host="65bd71144e" pages="2">
    <diagram name="Log-in" id="BNUmYBRGiDVqFD8WUZWi">
        <mxGraphModel dx="921" dy="431" grid="1" gridSize="10" guides="1" tooltips="1" connect="1" arrows="1" fold="1" page="1" pageScale="1" pageWidth="850" pageHeight="1100" math="0" shadow="0">
            <root>
                <mxCell id="0"/>
                <mxCell id="1" parent="0"/>
                <mxCell id="loDAAFRDm_DrVmHqtjok-1" value="" style="strokeWidth=1;shadow=0;dashed=0;align=center;html=1;shape=mxgraph.mockup.containers.browserWindow;rSize=0;strokeColor=#666666;strokeColor2=#008cff;strokeColor3=#c4c4c4;mainText=,;recursiveResize=0;" parent="1" vertex="1">
                    <mxGeometry x="70" y="10" width="730" height="500" as="geometry"/>
                </mxCell>
                <mxCell id="loDAAFRDm_DrVmHqtjok-2" value="Log-in" style="strokeWidth=1;shadow=0;dashed=0;align=center;html=1;shape=mxgraph.mockup.containers.anchor;fontSize=17;fontColor=#666666;align=left;whiteSpace=wrap;" parent="loDAAFRDm_DrVmHqtjok-1" vertex="1">
                    <mxGeometry x="60" y="12" width="110" height="26" as="geometry"/>
                </mxCell>
                <mxCell id="loDAAFRDm_DrVmHqtjok-3" value="https://www.ninerconnect.com/login" style="strokeWidth=1;shadow=0;dashed=0;align=center;html=1;shape=mxgraph.mockup.containers.anchor;rSize=0;fontSize=17;fontColor=#666666;align=left;" parent="loDAAFRDm_DrVmHqtjok-1" vertex="1">
                    <mxGeometry x="130" y="60" width="250" height="26" as="geometry"/>
                </mxCell>
                <mxCell id="loDAAFRDm_DrVmHqtjok-4" value="" style="strokeWidth=1;shadow=0;dashed=0;align=center;html=1;shape=mxgraph.mockup.forms.rrect;rSize=0;strokeColor=#999999;fillColor=#ffffff;" parent="loDAAFRDm_DrVmHqtjok-1" vertex="1">
                    <mxGeometry x="265" y="160" width="200" height="300" as="geometry"/>
                </mxCell>
                <mxCell id="loDAAFRDm_DrVmHqtjok-5" value="Sign In" style="strokeWidth=1;shadow=0;dashed=0;align=center;html=1;shape=mxgraph.mockup.forms.anchor;fontSize=12;fontColor=#666666;align=left;resizeWidth=1;spacingLeft=0;" parent="loDAAFRDm_DrVmHqtjok-4" vertex="1">
                    <mxGeometry width="100" height="20" relative="1" as="geometry">
                        <mxPoint x="10" y="10" as="offset"/>
                    </mxGeometry>
                </mxCell>
                <mxCell id="loDAAFRDm_DrVmHqtjok-6" value="" style="shape=line;strokeColor=#ddeeff;strokeWidth=2;html=1;resizeWidth=1;" parent="loDAAFRDm_DrVmHqtjok-4" vertex="1">
                    <mxGeometry width="180" height="10" relative="1" as="geometry">
                        <mxPoint x="10" y="30" as="offset"/>
                    </mxGeometry>
                </mxCell>
                <mxCell id="loDAAFRDm_DrVmHqtjok-7" value="User Name:" style="strokeWidth=1;shadow=0;dashed=0;align=center;html=1;shape=mxgraph.mockup.forms.anchor;fontSize=12;fontColor=#666666;align=left;resizeWidth=1;spacingLeft=0;" parent="loDAAFRDm_DrVmHqtjok-4" vertex="1">
                    <mxGeometry width="100" height="20" relative="1" as="geometry">
                        <mxPoint x="10" y="40" as="offset"/>
                    </mxGeometry>
                </mxCell>
                <mxCell id="loDAAFRDm_DrVmHqtjok-8" value="johndoe" style="strokeWidth=1;shadow=0;dashed=0;align=center;html=1;shape=mxgraph.mockup.forms.rrect;rSize=0;strokeColor=#999999;fontColor=#666666;align=left;spacingLeft=5;resizeWidth=1;" parent="loDAAFRDm_DrVmHqtjok-4" vertex="1">
                    <mxGeometry width="150" height="25" relative="1" as="geometry">
                        <mxPoint x="10" y="60" as="offset"/>
                    </mxGeometry>
                </mxCell>
                <mxCell id="loDAAFRDm_DrVmHqtjok-9" value="Password:" style="strokeWidth=1;shadow=0;dashed=0;align=center;html=1;shape=mxgraph.mockup.forms.anchor;fontSize=12;fontColor=#666666;align=left;resizeWidth=1;spacingLeft=0;" parent="loDAAFRDm_DrVmHqtjok-4" vertex="1">
                    <mxGeometry width="100" height="20" relative="1" as="geometry">
                        <mxPoint x="10" y="95" as="offset"/>
                    </mxGeometry>
                </mxCell>
                <mxCell id="loDAAFRDm_DrVmHqtjok-10" value="********" style="strokeWidth=1;shadow=0;dashed=0;align=center;html=1;shape=mxgraph.mockup.forms.rrect;rSize=0;strokeColor=#999999;fontColor=#666666;align=left;spacingLeft=5;resizeWidth=1;" parent="loDAAFRDm_DrVmHqtjok-4" vertex="1">
                    <mxGeometry width="150" height="25" relative="1" as="geometry">
                        <mxPoint x="10" y="115" as="offset"/>
                    </mxGeometry>
                </mxCell>
                <mxCell id="loDAAFRDm_DrVmHqtjok-11" value="SIGN IN" style="strokeWidth=1;shadow=0;dashed=0;align=center;html=1;shape=mxgraph.mockup.forms.rrect;rSize=5;strokeColor=none;fontColor=#ffffff;fillColor=#66bbff;fontSize=16;fontStyle=1;" parent="loDAAFRDm_DrVmHqtjok-4" vertex="1">
                    <mxGeometry y="1" width="80" height="30" relative="1" as="geometry">
                        <mxPoint x="20" y="-150" as="offset"/>
                    </mxGeometry>
                </mxCell>
                <mxCell id="loDAAFRDm_DrVmHqtjok-12" value="Forgot Password?" style="strokeWidth=1;shadow=0;dashed=0;align=center;html=1;shape=mxgraph.mockup.forms.anchor;fontSize=12;fontColor=#9999ff;align=left;spacingLeft=0;fontStyle=4;resizeWidth=1;" parent="loDAAFRDm_DrVmHqtjok-4" vertex="1">
                    <mxGeometry y="1" width="150" height="20" relative="1" as="geometry">
                        <mxPoint x="10" y="-110" as="offset"/>
                    </mxGeometry>
                </mxCell>
                <mxCell id="loDAAFRDm_DrVmHqtjok-13" value="" style="shape=line;strokeColor=#ddeeff;strokeWidth=2;html=1;resizeWidth=1;" parent="loDAAFRDm_DrVmHqtjok-4" vertex="1">
                    <mxGeometry y="1" width="180" height="10" relative="1" as="geometry">
                        <mxPoint x="10" y="-90" as="offset"/>
                    </mxGeometry>
                </mxCell>
                <mxCell id="loDAAFRDm_DrVmHqtjok-14" value="New User" style="strokeWidth=1;shadow=0;dashed=0;align=center;html=1;shape=mxgraph.mockup.forms.anchor;fontSize=12;fontColor=#666666;align=left;spacingLeft=0;resizeWidth=1;" parent="loDAAFRDm_DrVmHqtjok-4" vertex="1">
                    <mxGeometry y="1" width="150" height="20" relative="1" as="geometry">
                        <mxPoint x="10" y="-70" as="offset"/>
                    </mxGeometry>
                </mxCell>
                <mxCell id="loDAAFRDm_DrVmHqtjok-15" value="SIGN UP" style="strokeWidth=1;shadow=0;dashed=0;align=center;html=1;shape=mxgraph.mockup.forms.rrect;rSize=5;strokeColor=none;fontColor=#ffffff;fillColor=#66bbff;fontSize=16;fontStyle=1;" parent="loDAAFRDm_DrVmHqtjok-4" vertex="1">
                    <mxGeometry y="1" width="80" height="30" relative="1" as="geometry">
                        <mxPoint x="20" y="-50" as="offset"/>
                    </mxGeometry>
                </mxCell>
            </root>
        </mxGraphModel>
    </diagram>
    <diagram id="JDaCFPjJojlnft7N0f2z" name="Home">
        <mxGraphModel grid="1" page="1" gridSize="10" guides="1" tooltips="1" connect="1" arrows="1" fold="1" pageScale="1" pageWidth="850" pageHeight="1100" math="0" shadow="0">
            <root>
                <mxCell id="0"/>
                <mxCell id="1" parent="0"/>
                <mxCell id="H4XDbUGEwhzIVhZs-6xT-1" value="" style="strokeWidth=1;shadow=0;dashed=0;align=center;html=1;shape=mxgraph.mockup.containers.browserWindow;rSize=0;strokeColor=#666666;strokeColor2=#008cff;strokeColor3=#c4c4c4;mainText=,;recursiveResize=0;" vertex="1" parent="1">
                    <mxGeometry x="60" y="50" width="730" height="500" as="geometry"/>
                </mxCell>
                <mxCell id="H4XDbUGEwhzIVhZs-6xT-2" value="Home" style="strokeWidth=1;shadow=0;dashed=0;align=center;html=1;shape=mxgraph.mockup.containers.anchor;fontSize=17;fontColor=#666666;align=left;whiteSpace=wrap;" vertex="1" parent="H4XDbUGEwhzIVhZs-6xT-1">
                    <mxGeometry x="60" y="12" width="110" height="26" as="geometry"/>
                </mxCell>
                <mxCell id="H4XDbUGEwhzIVhZs-6xT-3" value="https://www.ninerconnect.com/home" style="strokeWidth=1;shadow=0;dashed=0;align=center;html=1;shape=mxgraph.mockup.containers.anchor;rSize=0;fontSize=17;fontColor=#666666;align=left;" vertex="1" parent="H4XDbUGEwhzIVhZs-6xT-1">
                    <mxGeometry x="130" y="60" width="250" height="26" as="geometry"/>
                </mxCell>
                <mxCell id="H4XDbUGEwhzIVhZs-6xT-16" value="" style="strokeWidth=1;shadow=0;dashed=0;align=center;html=1;shape=mxgraph.mockup.forms.rrect;rSize=5;strokeColor=#999999;fillColor=#ffffff;" vertex="1" parent="H4XDbUGEwhzIVhZs-6xT-1">
                    <mxGeometry x="490" y="230" width="220" height="230" as="geometry"/>
                </mxCell>
                <mxCell id="H4XDbUGEwhzIVhZs-6xT-17" value="October 2014" style="strokeWidth=1;shadow=0;dashed=0;align=center;html=1;shape=mxgraph.mockup.forms.anchor;fontColor=#999999;" vertex="1" parent="H4XDbUGEwhzIVhZs-6xT-16">
                    <mxGeometry x="41.25" y="10.514285714285714" width="137.5" height="26.285714285714285" as="geometry"/>
                </mxCell>
                <mxCell id="H4XDbUGEwhzIVhZs-6xT-18" value="&lt;" style="strokeWidth=1;shadow=0;dashed=0;align=center;html=1;shape=mxgraph.mockup.forms.rrect;rSize=4;strokeColor=#999999;fontColor=#008cff;fontSize=19;fontStyle=1;" vertex="1" parent="H4XDbUGEwhzIVhZs-6xT-16">
                    <mxGeometry x="11" y="10.514285714285714" width="34.375" height="26.285714285714285" as="geometry"/>
                </mxCell>
                <mxCell id="H4XDbUGEwhzIVhZs-6xT-19" value="&gt;" style="strokeWidth=1;shadow=0;dashed=0;align=center;html=1;shape=mxgraph.mockup.forms.rrect;rSize=4;strokeColor=#999999;fontColor=#008cff;fontSize=19;fontStyle=1;" vertex="1" parent="H4XDbUGEwhzIVhZs-6xT-16">
                    <mxGeometry x="174.625" y="10.514285714285714" width="34.375" height="26.285714285714285" as="geometry"/>
                </mxCell>
                <mxCell id="H4XDbUGEwhzIVhZs-6xT-20" value="Mo" style="strokeWidth=1;shadow=0;dashed=0;align=center;html=1;shape=mxgraph.mockup.forms.anchor;fontColor=#999999;" vertex="1" parent="H4XDbUGEwhzIVhZs-6xT-16">
                    <mxGeometry x="13.75" y="36.8" width="27.5" height="26.285714285714285" as="geometry"/>
                </mxCell>
                <mxCell id="H4XDbUGEwhzIVhZs-6xT-21" value="Tu" style="strokeWidth=1;shadow=0;dashed=0;align=center;html=1;shape=mxgraph.mockup.forms.anchor;fontColor=#999999;" vertex="1" parent="H4XDbUGEwhzIVhZs-6xT-16">
                    <mxGeometry x="41.25" y="36.8" width="27.5" height="26.285714285714285" as="geometry"/>
                </mxCell>
                <mxCell id="H4XDbUGEwhzIVhZs-6xT-22" value="We" style="strokeWidth=1;shadow=0;dashed=0;align=center;html=1;shape=mxgraph.mockup.forms.anchor;fontColor=#999999;" vertex="1" parent="H4XDbUGEwhzIVhZs-6xT-16">
                    <mxGeometry x="68.75" y="36.8" width="27.5" height="26.285714285714285" as="geometry"/>
                </mxCell>
                <mxCell id="H4XDbUGEwhzIVhZs-6xT-23" value="Th" style="strokeWidth=1;shadow=0;dashed=0;align=center;html=1;shape=mxgraph.mockup.forms.anchor;fontColor=#999999;" vertex="1" parent="H4XDbUGEwhzIVhZs-6xT-16">
                    <mxGeometry x="96.25" y="36.8" width="27.5" height="26.285714285714285" as="geometry"/>
                </mxCell>
                <mxCell id="H4XDbUGEwhzIVhZs-6xT-24" value="Fr" style="strokeWidth=1;shadow=0;dashed=0;align=center;html=1;shape=mxgraph.mockup.forms.anchor;fontColor=#999999;" vertex="1" parent="H4XDbUGEwhzIVhZs-6xT-16">
                    <mxGeometry x="123.75" y="36.8" width="27.5" height="26.285714285714285" as="geometry"/>
                </mxCell>
                <mxCell id="H4XDbUGEwhzIVhZs-6xT-25" value="Sa" style="strokeWidth=1;shadow=0;dashed=0;align=center;html=1;shape=mxgraph.mockup.forms.anchor;fontColor=#999999;" vertex="1" parent="H4XDbUGEwhzIVhZs-6xT-16">
                    <mxGeometry x="151.25" y="36.8" width="27.5" height="26.285714285714285" as="geometry"/>
                </mxCell>
                <mxCell id="H4XDbUGEwhzIVhZs-6xT-26" value="Su" style="strokeWidth=1;shadow=0;dashed=0;align=center;html=1;shape=mxgraph.mockup.forms.anchor;fontColor=#999999;" vertex="1" parent="H4XDbUGEwhzIVhZs-6xT-16">
                    <mxGeometry x="178.75" y="36.8" width="27.5" height="26.285714285714285" as="geometry"/>
                </mxCell>
                <mxCell id="H4XDbUGEwhzIVhZs-6xT-27" value="1" style="strokeWidth=1;shadow=0;dashed=0;align=center;html=1;shape=mxgraph.mockup.forms.rrect;rSize=0;strokeColor=#999999;fontColor=#999999;" vertex="1" parent="H4XDbUGEwhzIVhZs-6xT-16">
                    <mxGeometry x="13.75" y="63.08571428571429" width="27.5" height="26.285714285714285" as="geometry"/>
                </mxCell>
                <mxCell id="H4XDbUGEwhzIVhZs-6xT-28" value="2" style="strokeWidth=1;shadow=0;dashed=0;align=center;html=1;shape=mxgraph.mockup.forms.rrect;rSize=0;strokeColor=#999999;fontColor=#999999;" vertex="1" parent="H4XDbUGEwhzIVhZs-6xT-16">
                    <mxGeometry x="41.25" y="63.08571428571429" width="27.5" height="26.285714285714285" as="geometry"/>
                </mxCell>
                <mxCell id="H4XDbUGEwhzIVhZs-6xT-29" value="3" style="strokeWidth=1;shadow=0;dashed=0;align=center;html=1;shape=mxgraph.mockup.forms.rrect;rSize=0;strokeColor=#999999;fontColor=#999999;" vertex="1" parent="H4XDbUGEwhzIVhZs-6xT-16">
                    <mxGeometry x="68.75" y="63.08571428571429" width="27.5" height="26.285714285714285" as="geometry"/>
                </mxCell>
                <mxCell id="H4XDbUGEwhzIVhZs-6xT-30" value="4" style="strokeWidth=1;shadow=0;dashed=0;align=center;html=1;shape=mxgraph.mockup.forms.rrect;rSize=0;strokeColor=#999999;fontColor=#999999;" vertex="1" parent="H4XDbUGEwhzIVhZs-6xT-16">
                    <mxGeometry x="96.25" y="63.08571428571429" width="27.5" height="26.285714285714285" as="geometry"/>
                </mxCell>
                <mxCell id="H4XDbUGEwhzIVhZs-6xT-31" value="5" style="strokeWidth=1;shadow=0;dashed=0;align=center;html=1;shape=mxgraph.mockup.forms.rrect;rSize=0;strokeColor=#999999;fontColor=#999999;" vertex="1" parent="H4XDbUGEwhzIVhZs-6xT-16">
                    <mxGeometry x="123.75" y="63.08571428571429" width="27.5" height="26.285714285714285" as="geometry"/>
                </mxCell>
                <mxCell id="H4XDbUGEwhzIVhZs-6xT-32" value="6" style="strokeWidth=1;shadow=0;dashed=0;align=center;html=1;shape=mxgraph.mockup.forms.rrect;rSize=0;strokeColor=#999999;fontColor=#999999;" vertex="1" parent="H4XDbUGEwhzIVhZs-6xT-16">
                    <mxGeometry x="151.25" y="63.08571428571429" width="27.5" height="26.285714285714285" as="geometry"/>
                </mxCell>
                <mxCell id="H4XDbUGEwhzIVhZs-6xT-33" value="7" style="strokeWidth=1;shadow=0;dashed=0;align=center;html=1;shape=mxgraph.mockup.forms.rrect;rSize=0;strokeColor=#999999;fontColor=#999999;" vertex="1" parent="H4XDbUGEwhzIVhZs-6xT-16">
                    <mxGeometry x="178.75" y="63.08571428571429" width="27.5" height="26.285714285714285" as="geometry"/>
                </mxCell>
                <mxCell id="H4XDbUGEwhzIVhZs-6xT-34" value="8" style="strokeWidth=1;shadow=0;dashed=0;align=center;html=1;shape=mxgraph.mockup.forms.rrect;rSize=0;strokeColor=#999999;fontColor=#999999;" vertex="1" parent="H4XDbUGEwhzIVhZs-6xT-16">
                    <mxGeometry x="13.75" y="89.37142857142857" width="27.5" height="26.285714285714285" as="geometry"/>
                </mxCell>
                <mxCell id="H4XDbUGEwhzIVhZs-6xT-35" value="9" style="strokeWidth=1;shadow=0;dashed=0;align=center;html=1;shape=mxgraph.mockup.forms.rrect;rSize=0;strokeColor=#999999;fontColor=#999999;" vertex="1" parent="H4XDbUGEwhzIVhZs-6xT-16">
                    <mxGeometry x="41.25" y="89.37142857142857" width="27.5" height="26.285714285714285" as="geometry"/>
                </mxCell>
                <mxCell id="H4XDbUGEwhzIVhZs-6xT-36" value="10" style="strokeWidth=1;shadow=0;dashed=0;align=center;html=1;shape=mxgraph.mockup.forms.rrect;rSize=0;strokeColor=#999999;fontColor=#999999;" vertex="1" parent="H4XDbUGEwhzIVhZs-6xT-16">
                    <mxGeometry x="68.75" y="89.37142857142857" width="27.5" height="26.285714285714285" as="geometry"/>
                </mxCell>
                <mxCell id="H4XDbUGEwhzIVhZs-6xT-37" value="11" style="strokeWidth=1;shadow=0;dashed=0;align=center;html=1;shape=mxgraph.mockup.forms.rrect;rSize=0;strokeColor=#999999;fontColor=#999999;" vertex="1" parent="H4XDbUGEwhzIVhZs-6xT-16">
                    <mxGeometry x="96.25" y="89.37142857142857" width="27.5" height="26.285714285714285" as="geometry"/>
                </mxCell>
                <mxCell id="H4XDbUGEwhzIVhZs-6xT-38" value="12" style="strokeWidth=1;shadow=0;dashed=0;align=center;html=1;shape=mxgraph.mockup.forms.rrect;rSize=0;strokeColor=#999999;fontColor=#999999;" vertex="1" parent="H4XDbUGEwhzIVhZs-6xT-16">
                    <mxGeometry x="123.75" y="89.37142857142857" width="27.5" height="26.285714285714285" as="geometry"/>
                </mxCell>
                <mxCell id="H4XDbUGEwhzIVhZs-6xT-39" value="13" style="strokeWidth=1;shadow=0;dashed=0;align=center;html=1;shape=mxgraph.mockup.forms.rrect;rSize=0;strokeColor=#999999;fontColor=#999999;" vertex="1" parent="H4XDbUGEwhzIVhZs-6xT-16">
                    <mxGeometry x="151.25" y="89.37142857142857" width="27.5" height="26.285714285714285" as="geometry"/>
                </mxCell>
                <mxCell id="H4XDbUGEwhzIVhZs-6xT-40" value="14" style="strokeWidth=1;shadow=0;dashed=0;align=center;html=1;shape=mxgraph.mockup.forms.rrect;rSize=0;strokeColor=#999999;fontColor=#999999;" vertex="1" parent="H4XDbUGEwhzIVhZs-6xT-16">
                    <mxGeometry x="178.75" y="89.37142857142857" width="27.5" height="26.285714285714285" as="geometry"/>
                </mxCell>
                <mxCell id="H4XDbUGEwhzIVhZs-6xT-41" value="15" style="strokeWidth=1;shadow=0;dashed=0;align=center;html=1;shape=mxgraph.mockup.forms.rrect;rSize=0;strokeColor=#999999;fontColor=#999999;" vertex="1" parent="H4XDbUGEwhzIVhZs-6xT-16">
                    <mxGeometry x="13.75" y="115.65714285714286" width="27.5" height="26.285714285714285" as="geometry"/>
                </mxCell>
                <mxCell id="H4XDbUGEwhzIVhZs-6xT-42" value="16" style="strokeWidth=1;shadow=0;dashed=0;align=center;html=1;shape=mxgraph.mockup.forms.rrect;rSize=0;strokeColor=#999999;fontColor=#999999;" vertex="1" parent="H4XDbUGEwhzIVhZs-6xT-16">
                    <mxGeometry x="41.25" y="115.65714285714286" width="27.5" height="26.285714285714285" as="geometry"/>
                </mxCell>
                <mxCell id="H4XDbUGEwhzIVhZs-6xT-43" value="17" style="strokeWidth=1;shadow=0;dashed=0;align=center;html=1;shape=mxgraph.mockup.forms.rrect;rSize=0;strokeColor=#999999;fontColor=#999999;" vertex="1" parent="H4XDbUGEwhzIVhZs-6xT-16">
                    <mxGeometry x="68.75" y="115.65714285714286" width="27.5" height="26.285714285714285" as="geometry"/>
                </mxCell>
                <mxCell id="H4XDbUGEwhzIVhZs-6xT-44" value="18" style="strokeWidth=1;shadow=0;dashed=0;align=center;html=1;shape=mxgraph.mockup.forms.rrect;rSize=0;strokeColor=#999999;fontColor=#999999;" vertex="1" parent="H4XDbUGEwhzIVhZs-6xT-16">
                    <mxGeometry x="96.25" y="115.65714285714286" width="27.5" height="26.285714285714285" as="geometry"/>
                </mxCell>
                <mxCell id="H4XDbUGEwhzIVhZs-6xT-45" value="19" style="strokeWidth=1;shadow=0;dashed=0;align=center;html=1;shape=mxgraph.mockup.forms.rrect;rSize=0;strokeColor=#999999;fontColor=#999999;" vertex="1" parent="H4XDbUGEwhzIVhZs-6xT-16">
                    <mxGeometry x="123.75" y="115.65714285714286" width="27.5" height="26.285714285714285" as="geometry"/>
                </mxCell>
                <mxCell id="H4XDbUGEwhzIVhZs-6xT-46" value="20" style="strokeWidth=1;shadow=0;dashed=0;align=center;html=1;shape=mxgraph.mockup.forms.rrect;rSize=0;strokeColor=#999999;fontColor=#999999;" vertex="1" parent="H4XDbUGEwhzIVhZs-6xT-16">
                    <mxGeometry x="151.25" y="115.65714285714286" width="27.5" height="26.285714285714285" as="geometry"/>
                </mxCell>
                <mxCell id="H4XDbUGEwhzIVhZs-6xT-47" value="21" style="strokeWidth=1;shadow=0;dashed=0;align=center;html=1;shape=mxgraph.mockup.forms.rrect;rSize=0;strokeColor=#999999;fontColor=#999999;" vertex="1" parent="H4XDbUGEwhzIVhZs-6xT-16">
                    <mxGeometry x="178.75" y="115.65714285714286" width="27.5" height="26.285714285714285" as="geometry"/>
                </mxCell>
                <mxCell id="H4XDbUGEwhzIVhZs-6xT-48" value="22" style="strokeWidth=1;shadow=0;dashed=0;align=center;html=1;shape=mxgraph.mockup.forms.rrect;rSize=0;strokeColor=#999999;fontColor=#999999;" vertex="1" parent="H4XDbUGEwhzIVhZs-6xT-16">
                    <mxGeometry x="13.75" y="141.94285714285715" width="27.5" height="26.285714285714285" as="geometry"/>
                </mxCell>
                <mxCell id="H4XDbUGEwhzIVhZs-6xT-49" value="23" style="strokeWidth=1;shadow=0;dashed=0;align=center;html=1;shape=mxgraph.mockup.forms.rrect;rSize=0;strokeColor=#999999;fontColor=#999999;" vertex="1" parent="H4XDbUGEwhzIVhZs-6xT-16">
                    <mxGeometry x="41.25" y="141.94285714285715" width="27.5" height="26.285714285714285" as="geometry"/>
                </mxCell>
                <mxCell id="H4XDbUGEwhzIVhZs-6xT-50" value="25" style="strokeWidth=1;shadow=0;dashed=0;align=center;html=1;shape=mxgraph.mockup.forms.rrect;rSize=0;strokeColor=#999999;fontColor=#999999;" vertex="1" parent="H4XDbUGEwhzIVhZs-6xT-16">
                    <mxGeometry x="96.25" y="141.94285714285715" width="27.5" height="26.285714285714285" as="geometry"/>
                </mxCell>
                <mxCell id="H4XDbUGEwhzIVhZs-6xT-51" value="26" style="strokeWidth=1;shadow=0;dashed=0;align=center;html=1;shape=mxgraph.mockup.forms.rrect;rSize=0;strokeColor=#999999;fontColor=#999999;" vertex="1" parent="H4XDbUGEwhzIVhZs-6xT-16">
                    <mxGeometry x="123.75" y="141.94285714285715" width="27.5" height="26.285714285714285" as="geometry"/>
                </mxCell>
                <mxCell id="H4XDbUGEwhzIVhZs-6xT-52" value="27" style="strokeWidth=1;shadow=0;dashed=0;align=center;html=1;shape=mxgraph.mockup.forms.rrect;rSize=0;strokeColor=#999999;fontColor=#999999;" vertex="1" parent="H4XDbUGEwhzIVhZs-6xT-16">
                    <mxGeometry x="151.25" y="141.94285714285715" width="27.5" height="26.285714285714285" as="geometry"/>
                </mxCell>
                <mxCell id="H4XDbUGEwhzIVhZs-6xT-53" value="28" style="strokeWidth=1;shadow=0;dashed=0;align=center;html=1;shape=mxgraph.mockup.forms.rrect;rSize=0;strokeColor=#999999;fontColor=#999999;" vertex="1" parent="H4XDbUGEwhzIVhZs-6xT-16">
                    <mxGeometry x="178.75" y="141.94285714285715" width="27.5" height="26.285714285714285" as="geometry"/>
                </mxCell>
                <mxCell id="H4XDbUGEwhzIVhZs-6xT-54" value="29" style="strokeWidth=1;shadow=0;dashed=0;align=center;html=1;shape=mxgraph.mockup.forms.rrect;rSize=0;strokeColor=#999999;fontColor=#999999;" vertex="1" parent="H4XDbUGEwhzIVhZs-6xT-16">
                    <mxGeometry x="13.75" y="168.22857142857143" width="27.5" height="26.285714285714285" as="geometry"/>
                </mxCell>
                <mxCell id="H4XDbUGEwhzIVhZs-6xT-55" value="30" style="strokeWidth=1;shadow=0;dashed=0;align=center;html=1;shape=mxgraph.mockup.forms.rrect;rSize=0;strokeColor=#999999;fontColor=#999999;" vertex="1" parent="H4XDbUGEwhzIVhZs-6xT-16">
                    <mxGeometry x="41.25" y="168.22857142857143" width="27.5" height="26.285714285714285" as="geometry"/>
                </mxCell>
                <mxCell id="H4XDbUGEwhzIVhZs-6xT-56" value="31" style="strokeWidth=1;shadow=0;dashed=0;align=center;html=1;shape=mxgraph.mockup.forms.rrect;rSize=0;strokeColor=#999999;fontColor=#999999;" vertex="1" parent="H4XDbUGEwhzIVhZs-6xT-16">
                    <mxGeometry x="68.75" y="168.22857142857143" width="27.5" height="26.285714285714285" as="geometry"/>
                </mxCell>
                <mxCell id="H4XDbUGEwhzIVhZs-6xT-57" value="1" style="strokeWidth=1;shadow=0;dashed=0;align=center;html=1;shape=mxgraph.mockup.forms.rrect;rSize=0;strokeColor=#999999;fontColor=#999999;fillColor=#ddeeff;" vertex="1" parent="H4XDbUGEwhzIVhZs-6xT-16">
                    <mxGeometry x="96.25" y="168.22857142857143" width="27.5" height="26.285714285714285" as="geometry"/>
                </mxCell>
                <mxCell id="H4XDbUGEwhzIVhZs-6xT-58" value="2" style="strokeWidth=1;shadow=0;dashed=0;align=center;html=1;shape=mxgraph.mockup.forms.rrect;rSize=0;strokeColor=#999999;fontColor=#999999;fillColor=#ddeeff;" vertex="1" parent="H4XDbUGEwhzIVhZs-6xT-16">
                    <mxGeometry x="123.75" y="168.22857142857143" width="27.5" height="26.285714285714285" as="geometry"/>
                </mxCell>
                <mxCell id="H4XDbUGEwhzIVhZs-6xT-59" value="3" style="strokeWidth=1;shadow=0;dashed=0;align=center;html=1;shape=mxgraph.mockup.forms.rrect;rSize=0;strokeColor=#999999;fontColor=#999999;fillColor=#ddeeff;" vertex="1" parent="H4XDbUGEwhzIVhZs-6xT-16">
                    <mxGeometry x="151.25" y="168.22857142857143" width="27.5" height="26.285714285714285" as="geometry"/>
                </mxCell>
                <mxCell id="H4XDbUGEwhzIVhZs-6xT-60" value="4" style="strokeWidth=1;shadow=0;dashed=0;align=center;html=1;shape=mxgraph.mockup.forms.rrect;rSize=0;strokeColor=#999999;fontColor=#999999;fillColor=#ddeeff;" vertex="1" parent="H4XDbUGEwhzIVhZs-6xT-16">
                    <mxGeometry x="178.75" y="168.22857142857143" width="27.5" height="26.285714285714285" as="geometry"/>
                </mxCell>
                <mxCell id="H4XDbUGEwhzIVhZs-6xT-61" value="5" style="strokeWidth=1;shadow=0;dashed=0;align=center;html=1;shape=mxgraph.mockup.forms.rrect;rSize=0;strokeColor=#999999;fontColor=#999999;fillColor=#ddeeff;" vertex="1" parent="H4XDbUGEwhzIVhZs-6xT-16">
                    <mxGeometry x="13.75" y="194.5142857142857" width="27.5" height="26.285714285714285" as="geometry"/>
                </mxCell>
                <mxCell id="H4XDbUGEwhzIVhZs-6xT-62" value="6" style="strokeWidth=1;shadow=0;dashed=0;align=center;html=1;shape=mxgraph.mockup.forms.rrect;rSize=0;strokeColor=#999999;fontColor=#999999;fillColor=#ddeeff;" vertex="1" parent="H4XDbUGEwhzIVhZs-6xT-16">
                    <mxGeometry x="41.25" y="194.5142857142857" width="27.5" height="26.285714285714285" as="geometry"/>
                </mxCell>
                <mxCell id="H4XDbUGEwhzIVhZs-6xT-63" value="7" style="strokeWidth=1;shadow=0;dashed=0;align=center;html=1;shape=mxgraph.mockup.forms.rrect;rSize=0;strokeColor=#999999;fontColor=#999999;fillColor=#ddeeff;" vertex="1" parent="H4XDbUGEwhzIVhZs-6xT-16">
                    <mxGeometry x="68.75" y="194.5142857142857" width="27.5" height="26.285714285714285" as="geometry"/>
                </mxCell>
                <mxCell id="H4XDbUGEwhzIVhZs-6xT-64" value="8" style="strokeWidth=1;shadow=0;dashed=0;align=center;html=1;shape=mxgraph.mockup.forms.rrect;rSize=0;strokeColor=#999999;fontColor=#999999;fillColor=#ddeeff;" vertex="1" parent="H4XDbUGEwhzIVhZs-6xT-16">
                    <mxGeometry x="96.25" y="194.5142857142857" width="27.5" height="26.285714285714285" as="geometry"/>
                </mxCell>
                <mxCell id="H4XDbUGEwhzIVhZs-6xT-65" value="9" style="strokeWidth=1;shadow=0;dashed=0;align=center;html=1;shape=mxgraph.mockup.forms.rrect;rSize=0;strokeColor=#999999;fontColor=#999999;fillColor=#ddeeff;" vertex="1" parent="H4XDbUGEwhzIVhZs-6xT-16">
                    <mxGeometry x="123.75" y="194.5142857142857" width="27.5" height="26.285714285714285" as="geometry"/>
                </mxCell>
                <mxCell id="H4XDbUGEwhzIVhZs-6xT-66" value="10" style="strokeWidth=1;shadow=0;dashed=0;align=center;html=1;shape=mxgraph.mockup.forms.rrect;rSize=0;strokeColor=#999999;fontColor=#999999;fillColor=#ddeeff;" vertex="1" parent="H4XDbUGEwhzIVhZs-6xT-16">
                    <mxGeometry x="151.25" y="194.5142857142857" width="27.5" height="26.285714285714285" as="geometry"/>
                </mxCell>
                <mxCell id="H4XDbUGEwhzIVhZs-6xT-67" value="11" style="strokeWidth=1;shadow=0;dashed=0;align=center;html=1;shape=mxgraph.mockup.forms.rrect;rSize=0;strokeColor=#999999;fontColor=#999999;fillColor=#ddeeff;" vertex="1" parent="H4XDbUGEwhzIVhZs-6xT-16">
                    <mxGeometry x="178.75" y="194.5142857142857" width="27.5" height="26.285714285714285" as="geometry"/>
                </mxCell>
                <mxCell id="H4XDbUGEwhzIVhZs-6xT-68" value="24" style="strokeWidth=1;shadow=0;dashed=0;align=center;html=1;shape=mxgraph.mockup.forms.rrect;rSize=0;strokeColor=#ff0000;fontColor=#ffffff;strokeWidth=2;fillColor=#008cff;" vertex="1" parent="H4XDbUGEwhzIVhZs-6xT-16">
                    <mxGeometry x="68.75" y="141.94285714285715" width="27.5" height="26.285714285714285" as="geometry"/>
                </mxCell>
                <mxCell id="H4XDbUGEwhzIVhZs-6xT-69" value="" style="html=1;shadow=0;dashed=0;shape=mxgraph.bootstrap.rrect;rSize=5;strokeColor=#6C767D;html=1;whiteSpace=wrap;fillColor=#ffffff;fontColor=#212529;verticalAlign=bottom;align=left;spacing=20;spacingBottom=0;fontSize=14;" vertex="1" parent="H4XDbUGEwhzIVhZs-6xT-1">
                    <mxGeometry x="20" y="130" width="460" height="350" as="geometry"/>
                </mxCell>
                <mxCell id="H4XDbUGEwhzIVhZs-6xT-70" value="Feed" style="html=1;shadow=0;dashed=0;shape=mxgraph.bootstrap.topButton;rSize=5;perimeter=none;whiteSpace=wrap;fillColor=#F7F7F7;strokeColor=#6C767D;fontColor=#6C767D;resizeWidth=1;fontSize=18;align=left;spacing=20;" vertex="1" parent="H4XDbUGEwhzIVhZs-6xT-69">
                    <mxGeometry width="460" height="50" relative="1" as="geometry"/>
                </mxCell>
                <mxCell id="H4XDbUGEwhzIVhZs-6xT-71" value="John Doe" style="html=1;whiteSpace=wrap;strokeColor=none;fillColor=#0079D6;labelPosition=center;verticalLabelPosition=middle;verticalAlign=top;align=center;fontSize=12;outlineConnect=0;spacingTop=-6;fontColor=#FFFFFF;sketch=0;shape=mxgraph.sitemap.profile;" vertex="1" parent="H4XDbUGEwhzIVhZs-6xT-1">
                    <mxGeometry x="590" y="130" width="120" height="70" as="geometry"/>
                </mxCell>
            </root>
        </mxGraphModel>
    </diagram>
</mxfile>